<svg xmlns="http://www.w3.org/2000/svg" width="48" height="48"><defs><clipPath id="a"><path clip-rule="evenodd" d="M36 36H0V0h36v36z"/></clipPath></defs><g clip-path="url(#a)" transform="scale(1.3333)"><path d="M11.25 28.875h0v-2.626h0c0-.67.294-.923 1.02-1.175h0c3.74-1.284 7.009-3.45 7.009-4.34h0c0-.333-.154-.486-1.002-.486h0-3.865 0c-1.1.06-1.576.445-1.929.73h0c-.218.175-.388.313-.63.313h0c-.293 0-.603-.25-.603-.668h0v-4.126h0c0-.556.297-.75.965-.75h5.2c.556 0 .751-.242.751-.409h0c0-.333-.195-.612-.806-1.224h0c-2.114-1.891-5.368-3.226-5.368-3.226h0c-.389-.167-.742-.475-.742-1.142h0V7.12h0c0-.794.409-.961.965-.794h0c1.53.334 6.035 3.533 6.035 3.533h0c.445.278.667.389 1.168 0h0c.192-.138.478-.43.806-.765h0c.337-.344.718-.733 1.085-1.044h0c1.268-1.127 2.338-1.977 3.076-2.214h0c.74-.216 1.115.159 1.115.909h0V9.37h0c0 .704-.394 1.058-1.245 1.823h0c-.36.324-.803.723-1.333 1.252h0c-1.502 1.558-1.697 2.226-1.697 2.615h0c0 .529.15.687.9.687h2.354c.646 0 1.021.206 1.021 1.875h0c0 2.782-1.688 5.839-4.803 8.008h0c-4.56 3.255-8.01 4.145-8.705 4.145h0c-.389 0-.742-.15-.742-.9zm-8.724 4.599C5.052 36 9.118 36 17.25 36h1.5c8.132 0 12.198 0 14.724-2.526h0C36 30.948 36 26.882 36 18.75h0v-1.5h0c0-8.132 0-12.198-2.526-14.724h0C30.948 0 26.882 0 18.75 0h0-1.5 0C9.118 0 5.052 0 2.526 2.526h0C0 5.052 0 9.118 0 17.25h0v1.5h0c0 8.132 0 12.198 2.526 14.724z" stroke="#FFF" fill="#E1E1E1" fill-rule="evenodd"/></g></svg>